<svg width="30" height="31" viewBox="0 0 30 31" fill="none" xmlns="http://www.w3.org/2000/svg">
<path d="M25.6281 4.39137C24.246 2.9939 22.5998 1.88588 20.7854 1.13194C18.971 0.378003 17.0248 -0.00676064 15.0603 8.98925e-05C6.82914 8.98925e-05 0.120603 6.71528 0.120603 14.9546C0.120603 17.5954 0.81407 20.1608 2.11055 22.4243L0 30.1807L7.91457 28.0983C10.1005 29.2904 12.5578 29.9242 15.0603 29.9242C23.2915 29.9242 30 23.209 30 14.9697C30 10.9707 28.4472 7.21326 25.6281 4.39137V4.39137ZM15.0603 27.389C12.8291 27.389 10.6432 26.7854 8.72864 25.6536L8.27638 25.382L3.57286 26.6194L4.82412 22.032L4.52261 21.5642C3.28303 19.5827 2.62483 17.2924 2.62312 14.9546C2.62312 8.10359 8.201 2.52017 15.0452 2.52017C18.3618 2.52017 21.4824 3.81794 23.8191 6.17203C24.9761 7.32487 25.893 8.69613 26.5167 10.2063C27.1403 11.7165 27.4583 13.3356 27.4523 14.9697C27.4824 21.8207 21.9045 27.389 15.0603 27.389V27.389ZM21.8744 18.0934C21.4975 17.9123 19.6583 17.0069 19.3266 16.8711C18.9799 16.7503 18.7387 16.69 18.4824 17.0521C18.2261 17.4294 17.5176 18.2745 17.3065 18.5159C17.0955 18.7724 16.8693 18.8026 16.4925 18.6064C16.1156 18.4254 14.9095 18.0179 13.4925 16.7503C12.3769 15.7544 11.6382 14.5321 11.4121 14.1548C11.201 13.7775 11.3819 13.5814 11.5779 13.3852C11.7437 13.2192 11.9548 12.9476 12.1357 12.7363C12.3166 12.5251 12.392 12.3591 12.5126 12.1176C12.6332 11.8611 12.5729 11.6498 12.4824 11.4687C12.392 11.2876 11.6382 9.44663 11.3367 8.69211C11.0352 7.96778 10.7186 8.05832 10.4925 8.04323H9.76884C9.51256 8.04323 9.1206 8.13377 8.77387 8.51103C8.44221 8.88829 7.47739 9.79371 7.47739 11.6347C7.47739 13.4757 8.8191 15.2564 9 15.4978C9.1809 15.7544 11.6382 19.527 15.3769 21.1416C16.2663 21.534 16.9598 21.7603 17.5025 21.9263C18.392 22.213 19.206 22.1678 19.8543 22.0772C20.5779 21.9716 22.0703 21.1718 22.3719 20.2966C22.6884 19.4213 22.6884 18.6819 22.5829 18.5159C22.4774 18.3499 22.2513 18.2745 21.8744 18.0934V18.0934Z" fill="#D9D9D9"/>
</svg>
